<svg width="20" height="20" viewBox="0 0 20 20" fill="none" xmlns="http://www.w3.org/2000/svg">
<g clip-path="url(#clip0)">
<path d="M17.6666 8.33398C17.6666 13.334 14.2333 15.0007 9.99992 15.0007C5.76659 15.0007 2.33325 13.334 2.33325 8.33398C2.33325 3.66732 5.76659 0.333984 9.99992 0.333984C14.2333 0.333984 17.6666 3.66732 17.6666 8.33398Z" fill="#F5F5F5"/>
<path d="M10 0.333984C9.83333 0.333984 9.66667 0.340984 9.5 0.351651C13.5 0.602651 16.6667 3.85265 16.6667 8.33398C16.6667 13.134 13.5 14.862 9.5 14.9917C9.66667 14.997 9.83333 15.0007 10 15.0007C14.2333 15.0007 17.6667 13.334 17.6667 8.33398C17.6667 3.66732 14.2333 0.333984 10 0.333984Z" fill="#CFD8DC"/>
<path d="M12.6665 4.66699H7.33317C5.30813 4.66699 3.6665 6.30861 3.6665 8.33366C3.6665 10.3587 5.30813 12.0003 7.33317 12.0003H12.6665C14.6915 12.0003 16.3332 10.3587 16.3332 8.33366C16.3332 6.30861 14.6915 4.66699 12.6665 4.66699Z" fill="#607D8B"/>
<path d="M12.6665 4.66699H11.6665C13.6915 4.66699 15.3332 6.30861 15.3332 8.33366C15.3332 10.3587 13.6915 12.0003 11.6665 12.0003H12.6665C14.6915 12.0003 16.3332 10.3587 16.3332 8.33366C16.3332 6.30861 14.6915 4.66699 12.6665 4.66699Z" fill="#37474F"/>
<path d="M3.66667 1.66732C4.03486 1.66732 4.33334 1.36884 4.33334 1.00065C4.33334 0.632461 4.03486 0.333984 3.66667 0.333984C3.29848 0.333984 3 0.632461 3 1.00065C3 1.36884 3.29848 1.66732 3.66667 1.66732Z" fill="#02A9F4"/>
<path d="M16.3334 1.66732C16.7016 1.66732 17.0001 1.36884 17.0001 1.00065C17.0001 0.632461 16.7016 0.333984 16.3334 0.333984C15.9652 0.333984 15.6667 0.632461 15.6667 1.00065C15.6667 1.36884 15.9652 1.66732 16.3334 1.66732Z" fill="#02A9F4"/>
<path d="M6.33333 15H13.6667C14.403 15 15 15.597 15 16.3333V17C15 18.4728 13.8061 19.6667 12.3333 19.6667H7.66667C6.19391 19.6667 5 18.4728 5 17V16.3333C5 15.597 5.59695 15 6.33333 15Z" fill="#F5F5F5"/>
<path d="M13.6666 15H12.6666C13.403 15 13.9999 15.597 13.9999 16.3333V17C13.9999 18.4728 12.806 19.6667 11.3333 19.6667H12.3333C13.806 19.6667 14.9999 18.4728 14.9999 17V16.3333C14.9999 15.597 14.403 15 13.6666 15Z" fill="#CFD8DC"/>
<path d="M6.33325 8.66699C6.88553 8.66699 7.33324 8.21927 7.33324 7.66699C7.33324 7.11471 6.88553 6.66699 6.33325 6.66699C5.78097 6.66699 5.33325 7.11471 5.33325 7.66699C5.33325 8.21927 5.78097 8.66699 6.33325 8.66699Z" fill="#00BCD4"/>
<path d="M13.6667 8.66699C14.219 8.66699 14.6667 8.21927 14.6667 7.66699C14.6667 7.11471 14.219 6.66699 13.6667 6.66699C13.1145 6.66699 12.6667 7.11471 12.6667 7.66699C12.6667 8.21927 13.1145 8.66699 13.6667 8.66699Z" fill="#00BCD4"/>
<path d="M8.99984 9H10.9998C11.1839 9 11.3332 9.14924 11.3332 9.33334C11.3332 10.0697 10.7362 10.6667 9.99984 10.6667C9.26346 10.6667 8.6665 10.0697 8.6665 9.33334C8.6665 9.14924 8.81574 9 8.99984 9Z" fill="#00BCD4"/>
<path d="M8.3335 15H11.6668V16.6667C11.6668 17.5871 10.9206 18.3333 10.0002 18.3333C9.07969 18.3333 8.3335 17.5871 8.3335 16.6667V15Z" fill="#9E9E9E"/>
<path d="M10.6667 15V16.6667C10.6648 17.3921 10.1925 18.0326 9.5 18.2487C10.0054 18.4176 10.5613 18.3312 10.9917 18.017C11.4221 17.7027 11.6736 17.1995 11.6667 16.6667V15H10.6667Z" fill="#707070"/>
<path d="M2 8.33357C2 11.5579 3.377 13.7066 6.01533 14.7002C5.23362 14.8531 4.66888 15.5371 4.66667 16.3336V17.0002C4.66869 18.6563 6.01065 19.9982 7.66667 20.0002H12.3333C13.9893 19.9982 15.3313 18.6563 15.3333 17.0002V16.3336C15.3311 15.5371 14.7664 14.8531 13.9847 14.7002C16.623 13.7066 18 11.5579 18 8.33357C18.0177 6.66133 17.5549 5.01916 16.6667 3.60224V1.9389C17.1258 1.77656 17.4013 1.30701 17.3189 0.826992C17.2366 0.34697 16.8204 -0.00390625 16.3333 -0.00390625C15.8463 -0.00390625 15.4301 0.34697 15.3477 0.826992C15.2654 1.30701 15.5408 1.77656 16 1.9389V2.70557C14.4972 0.962597 12.3012 -0.0275431 10 0.000236114C7.69873 -0.0274598 5.50274 0.962806 4 2.7059V1.93924C4.45918 1.77689 4.73462 1.30735 4.65226 0.827325C4.56991 0.347303 4.1537 -0.00357292 3.66667 -0.00357292C3.17963 -0.00357292 2.76343 0.347303 2.68107 0.827325C2.59871 1.30735 2.87415 1.77689 3.33333 1.93924V3.60257C2.44512 5.0194 1.98234 6.66144 2 8.33357ZM16.3333 0.666903C16.5174 0.666903 16.6667 0.816141 16.6667 1.00024C16.6667 1.18433 16.5174 1.33357 16.3333 1.33357C16.1492 1.33357 16 1.18433 16 1.00024C16 0.816141 16.1492 0.666903 16.3333 0.666903ZM3.66667 0.666903C3.85076 0.666903 4 0.816141 4 1.00024C4 1.18433 3.85076 1.33357 3.66667 1.33357C3.48257 1.33357 3.33333 1.18433 3.33333 1.00024C3.33333 0.816141 3.48257 0.666903 3.66667 0.666903ZM11.3333 15.3336V16.6669C11.3333 17.4033 10.7364 18.0002 10 18.0002C9.26362 18.0002 8.66667 17.4033 8.66667 16.6669V15.3336H11.3333ZM14.6667 16.3336V17.0002C14.6652 18.2883 13.6214 19.3321 12.3333 19.3336H7.66667C6.37861 19.3321 5.3348 18.2883 5.33333 17.0002V16.3336C5.33333 15.7813 5.78105 15.3336 6.33333 15.3336H8V16.6669C8 17.7715 8.89543 18.6669 10 18.6669C11.1046 18.6669 12 17.7715 12 16.6669V15.3336H13.6667C14.219 15.3336 14.6667 15.7813 14.6667 16.3336ZM10 0.666903C14.1807 0.666903 17.3333 3.9629 17.3333 8.33357C17.3333 12.5359 14.8667 14.6669 10 14.6669C5.13333 14.6669 2.66667 12.5359 2.66667 8.33357C2.66667 3.9629 5.81933 0.666903 10 0.666903Z" fill="#161719"/>
<path d="M7.3335 12.334H12.6668C14.876 12.334 16.6668 10.5431 16.6668 8.33398C16.6668 6.12485 14.876 4.33398 12.6668 4.33398H7.3335C5.12436 4.33398 3.3335 6.12485 3.3335 8.33398C3.3335 10.5431 5.12436 12.334 7.3335 12.334ZM7.3335 5.00065H12.6668C14.5078 5.00065 16.0002 6.49304 16.0002 8.33398C16.0002 10.1749 14.5078 11.6673 12.6668 11.6673H7.3335C5.49255 11.6673 4.00016 10.1749 4.00016 8.33398C4.00016 6.49304 5.49255 5.00065 7.3335 5.00065Z" fill="#161719"/>
<path d="M8.99984 3.66667H10.9998C11.1839 3.66667 11.3332 3.51743 11.3332 3.33333C11.3332 3.14924 11.1839 3 10.9998 3H8.99984C8.81574 3 8.6665 3.14924 8.6665 3.33333C8.6665 3.51743 8.81574 3.66667 8.99984 3.66667Z" fill="#161719"/>
<path d="M9.66659 2.66667H10.3333C10.5173 2.66667 10.6666 2.51743 10.6666 2.33333C10.6666 2.14924 10.5173 2 10.3333 2H9.66659C9.48249 2 9.33325 2.14924 9.33325 2.33333C9.33325 2.51743 9.48249 2.66667 9.66659 2.66667Z" fill="#161719"/>
<path d="M6.33334 9.00066C7.06972 9.00066 7.66667 8.4037 7.66667 7.66732C7.66667 6.93094 7.06972 6.33398 6.33334 6.33398C5.59696 6.33398 5 6.93094 5 7.66732C5 8.4037 5.59696 9.00066 6.33334 9.00066ZM6.33334 7.00065C6.70153 7.00065 7.00001 7.29913 7.00001 7.66732C7.00001 8.03551 6.70153 8.33399 6.33334 8.33399C5.96515 8.33399 5.66667 8.03551 5.66667 7.66732C5.66667 7.29913 5.96515 7.00065 6.33334 7.00065Z" fill="#161719"/>
<path d="M13.6666 9.00066C14.403 9.00066 14.9999 8.4037 14.9999 7.66732C14.9999 6.93094 14.403 6.33398 13.6666 6.33398C12.9302 6.33398 12.3333 6.93094 12.3333 7.66732C12.3333 8.4037 12.9302 9.00066 13.6666 9.00066ZM13.6666 7.00065C14.0348 7.00065 14.3333 7.29913 14.3333 7.66732C14.3333 8.03551 14.0348 8.33399 13.6666 8.33399C13.2984 8.33399 12.9999 8.03551 12.9999 7.66732C12.9999 7.29913 13.2984 7.00065 13.6666 7.00065Z" fill="#161719"/>
<path d="M10.0002 11.0003C10.9202 10.9992 11.6657 10.2537 11.6668 9.33366C11.6668 8.96547 11.3683 8.66699 11.0002 8.66699H9.00016C8.63197 8.66699 8.3335 8.96547 8.3335 9.33366C8.3346 10.2537 9.08014 10.9992 10.0002 11.0003ZM11.0002 9.33366C11.0002 9.88594 10.5524 10.3337 10.0002 10.3337C9.44788 10.3337 9.00016 9.88594 9.00016 9.33366H11.0002Z" fill="#161719"/>
<path d="M10.0001 17.0006C10.1842 17.0006 10.3334 16.8514 10.3334 16.6673C10.3334 16.4832 10.1842 16.334 10.0001 16.334C9.81598 16.334 9.66675 16.4832 9.66675 16.6673C9.66675 16.8514 9.81598 17.0006 10.0001 17.0006Z" fill="#161719"/>
</g>
<defs>
<clipPath id="clip0">
<rect width="20" height="20" fill="white"/>
</clipPath>
</defs>
</svg>
