<svg width="45" height="45" viewBox="0 0 45 45" fill="none" xmlns="http://www.w3.org/2000/svg">
<circle cx="22.5" cy="22.5" r="22.5" fill="#F5F5F5"/>
<path d="M11.334 26.5713L10.5215 24.1807H6.51367L5.70117 26.5713H3.9668L7.73242 16.3369H9.34961L13.0684 26.5713H11.334ZM8.51367 18.376L7.00586 22.751H10.0371L8.55273 18.376H8.51367ZM18.748 16.4307L14.7246 27.5479H13.1543L17.1855 16.4307H18.748Z" fill="#5584AC"/>
<path d="M29.2285 23.9746C29.2285 24.8288 28.9655 25.5007 28.4395 25.9902C27.9186 26.4798 27.2259 26.7246 26.3613 26.7246C25.9134 26.7246 25.4967 26.6829 25.1113 26.5996C24.7311 26.5163 24.2962 26.3704 23.8066 26.1621L24.041 24.8418C24.5098 25.0345 24.8848 25.1699 25.166 25.248C25.4473 25.3262 25.7467 25.3652 26.0645 25.3652C26.5228 25.3652 26.8848 25.2324 27.1504 24.9668C27.416 24.7012 27.5488 24.3652 27.5488 23.959C27.5488 23.5475 27.4342 23.2064 27.2051 22.9355C26.9811 22.6647 26.6608 22.498 26.2441 22.4355C25.8327 22.5189 25.3743 22.5605 24.8691 22.5605V21.2402C25.7285 21.2402 26.3509 21.0996 26.7363 20.8184C27.127 20.5371 27.3223 20.1725 27.3223 19.7246C27.3223 19.3861 27.2103 19.1126 26.9863 18.9043C26.7624 18.6908 26.4447 18.584 26.0332 18.584C25.7988 18.584 25.5749 18.6152 25.3613 18.6777C25.1478 18.7402 24.8587 18.8548 24.4941 19.0215L24.2754 17.7402C24.8691 17.4277 25.5046 17.2715 26.1816 17.2715C27.041 17.2715 27.7259 17.4876 28.2363 17.9199C28.7467 18.3522 29.002 18.9434 29.002 19.6934C29.002 20.5423 28.653 21.2246 27.9551 21.7402C28.1113 21.8392 28.2598 21.9538 28.4004 22.084H31.1582V18.6152H29.666V17.334H34.7051V18.6152H32.8379V27.3574H31.1582L31.166 23.3965H29.166C29.2077 23.5892 29.2285 23.7819 29.2285 23.9746Z" fill="#5584AC"/>
</svg>
