<svg width="20" height="21" viewBox="0 0 20 21" fill="none" xmlns="http://www.w3.org/2000/svg">
<path d="M16.6673 10.5003C16.6673 9.58116 15.9198 8.83366 15.0007 8.83366H14.1673V6.33366C14.1673 4.03616 12.2982 2.16699 10.0007 2.16699C7.70315 2.16699 5.83398 4.03616 5.83398 6.33366V8.83366H5.00065C4.08148 8.83366 3.33398 9.58116 3.33398 10.5003V17.167C3.33398 18.0862 4.08148 18.8337 5.00065 18.8337H15.0007C15.9198 18.8337 16.6673 18.0862 16.6673 17.167V10.5003ZM7.50065 6.33366C7.50065 4.95533 8.62232 3.83366 10.0007 3.83366C11.379 3.83366 12.5007 4.95533 12.5007 6.33366V8.83366H7.50065V6.33366Z" fill="#5584AC"/>
</svg>
