<svg width="45" height="45" viewBox="0 0 45 45" fill="none" xmlns="http://www.w3.org/2000/svg">
<circle cx="22.5" cy="22.5" r="22.5" fill="#F5F5F5"/>
<g clip-path="url(#clip0_1978_16970)">
<path d="M37.1175 31.3172C36.226 30.5224 35.4455 29.6113 34.797 28.6083C34.089 27.2239 33.6646 25.7119 33.5489 24.1613V19.5941C33.555 17.1585 32.6715 14.8046 31.0644 12.9745C29.4573 11.1443 27.2372 9.96407 24.8213 9.65541V8.46276C24.8213 8.13542 24.6912 7.82149 24.4598 7.59002C24.2283 7.35855 23.9144 7.22852 23.587 7.22852C23.2597 7.22852 22.9458 7.35855 22.7143 7.59002C22.4828 7.82149 22.3528 8.13542 22.3528 8.46276V9.6739C19.9585 10.0048 17.7652 11.1922 16.1793 13.0162C14.5933 14.8401 13.722 17.1771 13.7269 19.5941V24.1613C13.6111 25.7119 13.1868 27.2239 12.4788 28.6083C11.8417 29.609 11.0737 30.52 10.1952 31.3172C10.0966 31.4038 10.0175 31.5105 9.96334 31.63C9.90914 31.7496 9.88103 31.8793 9.88086 32.0106V33.2679C9.88086 33.5131 9.97826 33.7483 10.1516 33.9217C10.325 34.0951 10.5602 34.1925 10.8054 34.1925H36.5074C36.7526 34.1925 36.9877 34.0951 37.1611 33.9217C37.3345 33.7483 37.4319 33.5131 37.4319 33.2679V32.0106C37.4317 31.8793 37.4036 31.7496 37.3494 31.63C37.2952 31.5105 37.2162 31.4038 37.1175 31.3172ZM11.8039 32.3434C12.6641 31.5124 13.4214 30.5812 14.0597 29.5698C14.9516 27.8978 15.4719 26.0529 15.5852 24.1613V19.5941C15.5485 18.5106 15.7303 17.4308 16.1196 16.419C16.509 15.4072 17.0979 14.484 17.8515 13.7046C18.605 12.9251 19.5077 12.3053 20.5057 11.8819C21.5038 11.4586 22.5769 11.2404 23.661 11.2404C24.7451 11.2404 25.8182 11.4586 26.8162 11.8819C27.8143 12.3053 28.717 12.9251 29.4705 13.7046C30.224 14.484 30.813 15.4072 31.2023 16.419C31.5917 17.4308 31.7734 18.5106 31.7368 19.5941V24.1613C31.8501 26.0529 32.3704 27.8978 33.2622 29.5698C33.9005 30.5812 34.6579 31.5124 35.5181 32.3434H11.8039Z" fill="#5584AC"/>
<path d="M23.1962 36.6433C23.8561 36.6281 24.4893 36.38 24.9839 35.9429C25.4785 35.5058 25.8026 34.9079 25.8989 34.2549H20.3887C20.4876 34.9257 20.8269 35.5376 21.3433 35.977C21.8598 36.4163 22.5182 36.6531 23.1962 36.6433Z" fill="#5584AC"/>
</g>
<defs>
<clipPath id="clip0_1978_16970">
<rect width="38.5714" height="38.5714" fill="white" transform="translate(3.85742 2.57129)"/>
</clipPath>
</defs>
</svg>
