<svg width="20" height="21" viewBox="0 0 20 21" fill="none" xmlns="http://www.w3.org/2000/svg">
<path d="M8.79454 5.70019L5.97538 2.44602C5.65038 2.07102 5.05454 2.07269 4.67704 2.45102L2.35871 4.77352C1.66871 5.46435 1.47121 6.49019 1.87038 7.31269C4.25506 12.2502 8.23708 16.2378 13.1712 18.6294C13.9929 19.0285 15.0179 18.831 15.7079 18.1402L18.0479 15.796C18.427 15.4169 18.4279 14.8177 18.0495 14.4927L14.7829 11.6885C14.4412 11.3952 13.9104 11.4335 13.5679 11.7769L12.4312 12.9152C12.373 12.9762 12.2964 13.0164 12.2132 13.0296C12.1299 13.0429 12.0446 13.0284 11.9704 12.9885C10.1124 11.9186 8.5712 10.3754 7.50371 8.51602C7.46373 8.44165 7.44926 8.35621 7.4625 8.27282C7.47575 8.18943 7.51599 8.11268 7.57704 8.05435L8.71038 6.92019C9.05371 6.57519 9.09121 6.04185 8.79454 5.69935V5.70019Z" stroke="#5584AC" stroke-width="2" stroke-linecap="round" stroke-linejoin="round"/>
</svg>
