<svg width="20" height="20" viewBox="0 0 20 20" fill="none" xmlns="http://www.w3.org/2000/svg">
<path fill-rule="evenodd" clip-rule="evenodd" d="M15.5893 5.58958C15.9148 5.26414 15.9148 4.73651 15.5893 4.41107C15.2639 4.08563 14.7363 4.08563 14.4108 4.41107L10.0001 8.82181L5.58934 4.41107C5.2639 4.08563 4.73626 4.08563 4.41083 4.41107C4.08539 4.73651 4.08539 5.26414 4.41083 5.58958L8.82157 10.0003L4.41083 14.4111C4.08539 14.7365 4.08539 15.2641 4.41083 15.5896C4.73626 15.915 5.2639 15.915 5.58934 15.5896L10.0001 11.1788L14.4108 15.5896C14.7363 15.915 15.2639 15.915 15.5893 15.5896C15.9148 15.2641 15.9148 14.7365 15.5893 14.4111L11.1786 10.0003L15.5893 5.58958Z" fill="#161719"/>
</svg>
